<svg width="24" height="24" viewBox="0 0 24 20" fill="none" xmlns="http://www.w3.org/2000/svg">
<g clip-path="url(#clip0_698_57842)">
<path d="M20.2303 0.570312H3.77031C2.003 0.570312 0.570312 2.003 0.570312 3.77031V20.2303C0.570312 21.9976 2.003 23.4303 3.77031 23.4303H20.2303C21.9976 23.4303 23.4303 21.9976 23.4303 20.2303V3.77031C23.4303 2.003 21.9976 0.570312 20.2303 0.570312Z"/>
<path d="M7.96988 11.1305H8.51988C9.33988 11.1305 9.97988 10.7205 9.97988 9.91047C9.97988 9.23047 9.49988 8.71047 8.70988 8.71047C7.81988 8.71047 7.34988 9.30047 7.27988 10.0405H5.31988C5.50988 8.31047 6.77988 6.98047 8.72988 6.98047C10.6799 6.98047 11.8999 8.15047 11.8999 9.82047C11.8999 10.7505 11.4099 11.5905 10.7099 11.9305C11.6099 12.3305 12.0599 13.1705 12.0599 14.0505C12.0599 15.7505 10.8099 17.0305 8.72988 17.0305C6.64988 17.0305 5.23988 15.7505 5.12988 13.8605H7.12988C7.21988 14.7205 7.74988 15.3005 8.70988 15.3005C9.52988 15.3005 10.1199 14.7905 10.1199 14.0205C10.1199 13.2005 9.48988 12.7005 8.57988 12.7005H7.95988V11.1305H7.96988Z" fill="white"/>
<path d="M18.2695 16.8606H16.2895V9.45062L14.0195 10.5806V8.60063L16.9795 7.14062H18.2595V16.8706L18.2695 16.8606Z" fill="white"/>
</g>
<defs>
<clipPath id="clip0_698_57842">
<rect width="24" height="24" fill="white"/>
</clipPath>
</defs>
</svg>
