<svg width="24" height="24" viewBox="0 0 24 24" fill="none" xmlns="http://www.w3.org/2000/svg">
<path d="M7.2898 18.1988C7.83657 18.1988 8.2798 17.7555 8.2798 17.2087C8.2798 16.662 7.83657 16.2188 7.2898 16.2188C6.74304 16.2188 6.2998 16.662 6.2998 17.2087C6.2998 17.7555 6.74304 18.1988 7.2898 18.1988Z" fill="#707070"/>
<path d="M11.9998 18.1988C12.5465 18.1988 12.9898 17.7555 12.9898 17.2087C12.9898 16.662 12.5465 16.2188 11.9998 16.2188C11.453 16.2188 11.0098 16.662 11.0098 17.2087C11.0098 17.7555 11.453 18.1988 11.9998 18.1988Z" fill="#707070"/>
<path d="M16.7097 18.1988C17.2565 18.1988 17.6997 17.7555 17.6997 17.2087C17.6997 16.662 17.2565 16.2188 16.7097 16.2188C16.163 16.2188 15.7197 16.662 15.7197 17.2087C15.7197 17.7555 16.163 18.1988 16.7097 18.1988Z" fill="#707070"/>
<path d="M7.2898 14.4605C7.83657 14.4605 8.2798 14.0172 8.2798 13.4705C8.2798 12.9237 7.83657 12.4805 7.2898 12.4805C6.74304 12.4805 6.2998 12.9237 6.2998 13.4705C6.2998 14.0172 6.74304 14.4605 7.2898 14.4605Z" fill="#707070"/>
<path d="M11.9998 14.4605C12.5465 14.4605 12.9898 14.0172 12.9898 13.4705C12.9898 12.9237 12.5465 12.4805 11.9998 12.4805C11.453 12.4805 11.0098 12.9237 11.0098 13.4705C11.0098 14.0172 11.453 14.4605 11.9998 14.4605Z" fill="#707070"/>
<path d="M16.7097 14.4605C17.2565 14.4605 17.6997 14.0172 17.6997 13.4705C17.6997 12.9237 17.2565 12.4805 16.7097 12.4805C16.163 12.4805 15.7197 12.9237 15.7197 13.4705C15.7197 14.0172 16.163 14.4605 16.7097 14.4605Z" fill="#707070"/>
<path d="M19.9296 5.12109H4.05957C3.50729 5.12109 3.05957 5.56881 3.05957 6.12109V20.4111C3.05957 20.9634 3.50729 21.4111 4.05957 21.4111H19.9296C20.4819 21.4111 20.9296 20.9634 20.9296 20.4111V6.12109C20.9296 5.56881 20.4819 5.12109 19.9296 5.12109Z" stroke="#707070" stroke-width="1.5" stroke-linecap="round" stroke-linejoin="round"/>
<path d="M7.10938 2.58984V5.11984" stroke="#707070" stroke-width="1.5" stroke-linecap="round" stroke-linejoin="round"/>
<path d="M16.8896 2.58984V5.11984" stroke="#707070" stroke-width="1.5" stroke-linecap="round" stroke-linejoin="round"/>
<path d="M3.05957 9.26953H20.9396" stroke="#707070" stroke-width="1.5" stroke-linecap="round" stroke-linejoin="round"/>
</svg>
