<svg width="63" height="54" viewBox="0 0 63 54" fill="none" xmlns="http://www.w3.org/2000/svg">
<path d="M23.187 2.10938H4.81738V8.02426H23.187V2.10938Z" fill="#335BF0"/>
<path d="M23.187 12.707H4.81738V18.6219H23.187V12.707Z" fill="#335BF0"/>
<path d="M23.1868 2.35547H16.8887V25.5172H23.1868V2.35547Z" fill="#335BF0"/>
<path d="M0.880859 25.5156V45.2815H27.1231V25.5156H0.880859ZM21.2673 39.5598H6.73663V31.2373H21.2673V39.5598Z" fill="#335BF0"/>
<path d="M48.444 42.387C52.9648 37.8663 52.9648 30.5244 48.444 26.0036C44.8607 22.4202 39.5339 21.6843 35.2146 23.7782L22.5722 11.1358L17.2453 11.2059L17.1753 16.5327L17.7272 17.0847L20.9163 16.6291L20.4607 19.8182L20.8462 20.2037L24.0353 19.7481L23.5797 22.9372L23.9652 23.3226L27.1543 22.8671L26.6987 26.0561L29.8352 29.1927C27.75 33.5032 28.486 38.8475 32.0605 42.4221C36.5726 46.9166 43.9145 46.9166 48.444 42.387ZM40.8743 34.8174C42.1447 33.547 44.1948 33.547 45.4652 34.8174C46.7356 36.0877 46.7356 38.1379 45.4652 39.4082C44.1948 40.6786 42.1447 40.6786 40.8743 39.4082C39.6039 38.1379 39.6039 36.0877 40.8743 34.8174Z" fill="#F9E42E"/>
<path d="M40.8737 39.4079C39.6033 38.1375 39.6033 36.0874 40.8737 34.817L17.2447 11.188L17.1746 16.5149L17.7266 17.0668L20.9156 16.6112L20.4601 19.8003L20.8455 20.1858L24.0346 19.7302L23.579 22.9193L23.9645 23.3048L27.1536 22.8492L26.698 26.0383L29.8345 29.1748C27.7494 33.4853 28.4853 38.8297 32.0599 42.4042C36.5719 46.9163 43.9138 46.9163 48.4434 42.3867L45.4645 39.4079C44.1942 40.6783 42.144 40.6783 40.8737 39.4079Z" fill="#F3D523"/>
</svg>
