<svg width="24" height="24" viewBox="0 0 24 24" fill="none" xmlns="http://www.w3.org/2000/svg">
<g clip-path="url(#clip0_698_57850)">
<path d="M23.3197 14.7796L20.9897 12.8796C21.0197 12.5796 21.0397 12.2796 21.0397 11.9696C21.0397 11.6796 21.0197 11.3996 20.9997 11.1096L23.3297 9.20961C23.6497 8.94961 23.7397 8.48961 23.5297 8.12961L21.0997 3.93961C20.8897 3.57961 20.4497 3.41961 20.0597 3.56961L17.2697 4.63961C16.7897 4.28961 16.2797 3.99961 15.7297 3.74961L15.2597 0.809609C15.1897 0.399609 14.8397 0.0996094 14.4197 0.0996094H9.57966C9.15966 0.0996094 8.80966 0.399609 8.73966 0.809609L8.26966 3.74961C7.72966 3.99961 7.20966 4.29961 6.72966 4.63961L3.93966 3.56961C3.54966 3.41961 3.10966 3.56961 2.89966 3.93961L0.479663 8.13961C0.269663 8.49961 0.359663 8.95961 0.679663 9.21961L3.00966 11.1096C2.97966 11.3896 2.96966 11.6796 2.96966 11.9696C2.96966 12.2796 2.98966 12.5796 3.01966 12.8796L0.689663 14.7796C0.369663 15.0396 0.279663 15.4996 0.489663 15.8596L2.91966 20.0496C3.12966 20.4096 3.56966 20.5696 3.95966 20.4196L6.79966 19.3296C7.25966 19.6596 7.74966 19.9396 8.26966 20.1796L8.74966 23.1896C8.81966 23.5996 9.16966 23.8996 9.58966 23.8996H14.4297C14.8497 23.8996 15.1997 23.5996 15.2697 23.1896L15.7497 20.1796C16.2697 19.9396 16.7597 19.6596 17.2297 19.3296L20.0697 20.4196C20.4597 20.5696 20.8997 20.4196 21.1097 20.0496L23.5397 15.8596C23.7497 15.4996 23.6597 15.0396 23.3397 14.7796H23.3197ZM11.9997 16.0696C9.74966 16.0696 7.91966 14.2096 7.91966 11.9896C7.91966 9.72961 9.73966 7.90961 11.9997 7.90961C14.2597 7.90961 16.0797 9.72961 16.0797 11.9896C16.0797 14.2096 14.2597 16.0696 11.9997 16.0696Z"/>
</g>
<defs>
<clipPath id="clip0_698_57850">
<rect width="24" height="24" fill="white"/>
</clipPath>
</defs>
</svg>
