<svg width="20" height="20" viewBox="0 0 20 20" fill="none" xmlns="http://www.w3.org/2000/svg">
<path d="M15.1669 15.7427L10.6502 10.101C10.6002 10.0427 10.6002 9.95104 10.6502 9.89271L14.9669 4.25104C15.0502 4.14271 14.9669 3.98438 14.8335 3.98438H11.8169C11.7669 3.98438 11.7169 4.00937 11.6835 4.05104L7.99186 8.87604C7.89186 9.00104 7.69186 8.93437 7.69186 8.77604V4.15104C7.69186 4.05937 7.61686 3.98438 7.5252 3.98438H4.99186C4.9002 3.98438 4.8252 4.05937 4.8252 4.15104V15.851C4.8252 15.9427 4.9002 16.0177 4.99186 16.0177H7.5252C7.61686 16.0177 7.69186 15.9427 7.69186 15.851V11.176C7.69186 11.0177 7.89186 10.9427 7.99186 11.0677L11.9085 15.951C11.9085 15.951 11.9919 16.0177 12.0419 16.0177H15.0502C15.1919 16.0177 15.2669 15.851 15.1835 15.7427H15.1669Z" fill="current"/>
</svg>
