<svg width="52" height="62" viewBox="0 0 52 62" fill="none" xmlns="http://www.w3.org/2000/svg">
<g clip-path="url(#clip0_698_57634)">
<path d="M39.5993 7.86664C32.8229 3.95426 24.1434 6.27993 20.231 13.0564C17.1299 18.4276 17.9473 24.958 21.7909 29.401L10.8498 48.3514L12.6201 54.6265L18.9396 53.022L19.4172 52.1946L17.8685 48.5688L21.7829 48.0972L22.1165 47.5194L20.5677 43.8936L24.4821 43.422L24.8157 42.8442L23.2669 39.2184L27.1813 38.7468L29.8957 34.0453C35.6521 35.1449 41.737 32.582 44.8305 27.2239C48.7146 20.4661 46.3889 11.7866 39.5993 7.86664ZM33.0484 19.2133C31.1441 18.1138 30.4947 15.6902 31.5941 13.786C32.6935 11.8817 35.1172 11.2323 37.0214 12.3317C38.9256 13.4312 39.5751 15.8548 38.4756 17.759C37.3762 19.6633 34.9526 20.3127 33.0484 19.2133Z" fill="#F9E42E"/>
<path d="M38.4759 17.7596C37.3765 19.6638 34.9529 20.3132 33.0486 19.2138L12.5996 54.6326L18.9191 53.0281L19.3968 52.2007L17.848 48.5749L21.7624 48.1033L22.096 47.5255L20.5472 43.8997L24.4617 43.4281L24.7953 42.8503L23.2465 39.2245L27.1609 38.7529L29.8753 34.0514C35.6317 35.151 41.7165 32.5881 44.8101 27.23C48.7149 20.4667 46.3892 11.7872 39.5996 7.86719L37.0217 12.3323C38.9259 13.4317 39.5753 15.8553 38.4759 17.7596Z" fill="#F3D523"/>
</g>
<defs>
<clipPath id="clip0_698_57634">
<rect width="28.3724" height="54" fill="white" transform="translate(27.3203 0.777344) rotate(30)"/>
</clipPath>
</defs>
</svg>
