<svg width="36" height="43" viewBox="0 0 36 43" fill="none" xmlns="http://www.w3.org/2000/svg">
<g clip-path="url(#clip0_1288_58769)">
<path d="M25.998 27.7718C26.271 27.1767 26.44 26.5478 26.5075 25.8932C26.62 24.8242 26.4784 23.7899 26.0292 22.8027C25.5986 21.845 24.9373 21.0732 24.0611 20.4824C24.0398 20.4715 24.0185 20.4605 24.0026 20.439C23.9759 20.4253 23.9546 20.4143 23.928 20.4005C23.896 20.3841 23.8587 20.3648 23.8321 20.3379C23.6668 20.2527 23.5016 20.1675 23.3417 20.0851C23.3043 20.0791 23.267 20.0599 23.235 20.0434C23.2084 20.0297 23.187 20.0187 23.1604 20.005C23.1337 20.0044 23.1124 19.9935 23.091 19.9825C22.9923 19.9515 22.8963 19.9153 22.7923 19.8815C22.3414 19.7353 21.8822 19.6445 21.412 19.6276C20.9284 19.6104 20.4447 19.6064 19.9611 19.6024C19.4293 19.6001 18.8976 19.5846 18.3685 19.5771C17.6043 19.5677 16.8455 19.5347 16.0812 19.5517C15.7043 19.563 15.3352 19.6247 14.9793 19.7263C14.5806 19.8324 14.195 19.9784 13.8279 20.1671C13.4796 20.3455 13.1471 20.5587 12.8359 20.796C12.6052 20.9688 12.3904 21.163 12.1915 21.3787C11.9873 21.5917 11.7911 21.8154 11.6268 22.0556L11.5431 22.2179C11.4619 22.4147 11.5273 22.6937 11.719 22.8191L11.8576 22.8905C12.0471 22.9417 12.2156 22.9026 12.3633 22.7732C12.4358 22.7111 12.4843 22.6301 12.5435 22.5545C12.8125 22.2026 13.1295 21.8887 13.4836 21.6204C14.0175 21.2128 14.6176 20.9254 15.2812 20.7636C15.6183 20.6854 15.9579 20.6417 16.3107 20.6379C16.5833 20.6325 16.8585 20.6484 17.1284 20.6483C17.6548 20.6478 18.1838 20.6685 18.7076 20.6733C19.3916 20.6811 20.073 20.6942 20.7543 20.7073C21.0483 20.7129 21.3396 20.7106 21.6387 20.7454C21.8657 20.7762 22.0873 20.8175 22.3114 20.88C22.4422 20.9142 22.5675 20.959 22.6902 21.0089C22.7169 21.0094 22.7382 21.0204 22.7596 21.0314C22.7862 21.0451 22.8182 21.0616 22.8448 21.0754C22.8956 21.0816 22.9355 21.1088 22.9782 21.1308C23.0528 21.1693 23.1327 21.2105 23.2074 21.2489C23.25 21.2709 23.2954 21.2877 23.3299 21.3253L23.4045 21.3638C23.4045 21.3638 23.4472 21.3858 23.4631 21.4072C23.4924 21.4157 23.511 21.4452 23.5376 21.4589C23.7774 21.609 23.9955 21.801 24.1895 22.0004C24.3703 22.1864 24.5349 22.3905 24.6808 22.6049C24.9089 22.9346 25.0807 23.295 25.2257 23.6681C25.3048 23.8812 25.3571 24.107 25.4013 24.3353C25.5133 24.8902 25.5211 25.4511 25.4407 26.0129C25.4019 26.2713 25.3472 26.5215 25.2684 26.766C25.2249 26.9027 25.1708 27.0339 25.1273 27.1706C25.1245 27.2023 25.111 27.2285 25.0975 27.2547C25.084 27.2809 25.0678 27.3123 25.0543 27.3385C25.046 27.3939 25.0164 27.4383 24.9921 27.4854C24.9435 27.5797 24.9029 27.6715 24.849 27.763C24.8247 27.8101 24.8004 27.8573 24.7682 27.8937C24.752 27.9251 24.7385 27.9513 24.7223 27.9827C24.7088 28.0089 24.6953 28.0351 24.6738 28.0506C24.5849 28.1838 24.4907 28.3142 24.3912 28.4419C24.2432 28.6374 24.0739 28.8219 23.8913 28.993C23.6845 29.1848 23.4645 29.363 23.2258 29.5251C22.8423 29.7848 22.4244 29.9805 21.9907 30.1282C21.8274 30.1833 21.6616 30.2171 21.4957 30.251C21.2148 30.3117 20.9314 30.338 20.6481 30.3378C20.274 30.3439 19.8973 30.3287 19.5232 30.3215C19.1838 30.3124 18.8471 30.3112 18.5078 30.3021C18.4811 30.3015 18.457 30.309 18.4599 30.2641C18.4852 30.0186 18.4811 29.7779 18.4717 29.5344C18.4502 29.0393 18.3699 28.5538 18.2254 28.075C18.1519 27.8249 18.0543 27.5824 17.946 27.3475C17.6976 26.8085 17.3714 26.3288 16.9674 25.8952C16.6991 25.6044 16.401 25.358 16.0789 25.1323C16.0575 25.1214 16.0362 25.1104 16.0203 25.0889C16.0043 25.0807 15.9883 25.0724 15.9723 25.0642C15.9457 25.0504 15.919 25.0367 15.9031 25.0152C15.8711 24.9988 15.8445 24.985 15.8125 24.9685C15.7698 24.9466 15.7272 24.9246 15.69 24.8921C15.5834 24.8372 15.4821 24.785 15.3755 24.73C15.3274 24.7185 15.2848 24.6966 15.2421 24.6746C15.2102 24.6581 15.1835 24.6444 15.1515 24.6279C15.1195 24.6246 15.0982 24.6136 15.0715 24.5999C14.9408 24.5524 14.8154 24.5077 14.6821 24.4655C14.2232 24.3218 13.7479 24.236 13.2697 24.2215C12.9036 24.2118 12.5402 24.2101 12.1795 24.2032C11.6691 24.1987 11.1507 24.1835 10.6404 24.179C10.1219 24.177 9.59827 24.159 9.07985 24.157C8.67635 24.1545 8.27029 24.1308 7.86394 24.1601C7.53243 24.1881 7.20349 24.2373 6.88499 24.3317C6.75921 24.3663 6.63877 24.4037 6.51832 24.4411C6.32823 24.5088 6.13545 24.5818 5.95062 24.6656C5.53543 24.856 5.15208 25.0893 4.79254 25.368C4.51081 25.5874 4.2423 25.8335 4.00044 26.0934C3.78274 26.3325 3.57833 26.5852 3.4032 26.8595C3.38174 26.875 3.38161 26.9014 3.36015 26.9169C3.34935 26.9378 3.33855 26.9588 3.32775 26.9797C3.30359 27.0004 3.30076 27.0321 3.2766 27.0528C3.2604 27.0842 3.2415 27.1209 3.22531 27.1523C3.19305 27.1887 3.18745 27.2389 3.14986 27.2725C3.07697 27.414 3.00408 27.5554 2.93389 27.6916C2.92559 27.747 2.8853 27.7859 2.87437 27.8333C2.85817 27.8647 2.84467 27.8909 2.82847 27.9223C2.83097 27.9567 2.80148 27.9747 2.80134 28.0011C2.79054 28.0221 2.77974 28.043 2.76895 28.064C2.77414 28.0932 2.74735 28.1059 2.74721 28.1323C2.73358 28.185 2.70928 28.2321 2.69032 28.282C2.62518 28.4738 2.56808 28.6632 2.51894 28.8632C2.44792 29.1581 2.3983 29.4507 2.36467 29.7516C2.3309 30.0789 2.32122 30.3987 2.34089 30.7271C2.36811 31.1455 2.43277 31.5567 2.54825 31.9609C2.63223 32.2561 2.73227 32.5463 2.86179 32.8186C3.06006 33.2324 3.29585 33.6257 3.59061 33.9831C3.76852 34.2007 3.96256 34.4002 4.16733 34.5919C4.3721 34.7836 4.593 34.9571 4.83009 35.0992C4.84602 35.1207 4.87274 35.1212 4.88866 35.1427C4.91531 35.1564 4.93663 35.1674 4.96328 35.1811C4.9952 35.2108 5.04594 35.2171 5.07515 35.252L5.52823 35.4855C5.56831 35.4863 5.59752 35.5212 5.64023 35.53C5.66688 35.5437 5.6882 35.5547 5.71486 35.5685C5.74158 35.569 5.7575 35.5904 5.78422 35.591C5.86424 35.6189 5.94426 35.6469 6.02429 35.6749C6.25903 35.7561 6.49653 35.8189 6.74484 35.8606C7.11062 35.9232 7.47923 35.9541 7.85069 35.9533C8.35844 35.9498 8.86336 35.978 9.37111 35.9745C9.86281 35.976 10.3598 35.9935 10.8568 35.9977C11.3886 36 11.9256 36.0182 12.4627 36.0233C12.6444 36.0241 12.8235 36.017 12.9999 36.0018C13.5373 35.954 14.0591 35.8317 14.5651 35.6351C14.9802 35.4712 15.3768 35.2646 15.7415 35.015C16.2269 34.6884 16.6565 34.2999 17.0222 33.852C17.1513 33.6932 17.3018 33.5453 17.3723 33.343C17.4374 33.1644 17.3745 32.9199 17.2309 32.7928C16.9994 32.5874 16.6465 32.6308 16.4526 32.9022C16.2858 33.1344 16.0975 33.3556 15.8881 33.5526C15.1629 34.2528 14.3081 34.7072 13.3024 34.8783C12.8959 34.9472 12.4844 34.934 12.0756 34.9288C10.6086 34.9086 9.1416 34.8884 7.67199 34.8602C6.79825 34.8408 5.98992 34.5766 5.27911 34.0578C4.3713 33.3977 3.79332 32.5164 3.53972 31.4378C3.23129 30.1121 3.44086 28.8677 4.11769 27.6984C4.43049 27.1569 4.83377 26.6886 5.32483 26.2987C6.19425 25.6065 7.1903 25.2315 8.32335 25.2321C8.99142 25.2317 9.66206 25.2525 10.3328 25.2601C10.445 25.2649 10.4396 25.2622 10.4391 25.3679C10.3834 26.3137 10.5229 27.2342 10.9112 28.1039C11.4554 29.3257 12.3164 30.2467 13.5319 30.8334C14.105 31.1089 14.7081 31.2739 15.3385 31.3203C15.8166 31.3613 16.3031 31.3468 16.784 31.356C18.0159 31.3744 19.2424 31.39 20.4715 31.4136C21.356 31.4252 22.2013 31.251 22.9889 30.8747C24.3847 30.2085 25.3869 29.1539 26.0168 27.7616L25.998 27.7718ZM17.2786 30.2917C16.6667 30.2747 16.0547 30.2973 15.4456 30.2486C14.9141 30.2066 14.4071 30.0647 13.9327 29.8202C13.9114 29.8092 13.89 29.7982 13.8527 29.779C12.904 29.2768 12.2238 28.5152 11.8121 27.5208C11.5298 26.8383 11.4266 26.1222 11.4651 25.3929C11.4711 25.2767 11.4711 25.2767 11.5886 25.2842C12.1444 25.2922 12.6949 25.2975 13.248 25.3108C13.8198 25.327 14.3695 25.4645 14.8893 25.7125C15.8757 26.1811 16.58 26.922 17.0265 27.9012C17.3514 28.6189 17.4785 29.3672 17.4344 30.1466C17.4283 30.2893 17.4283 30.2893 17.2813 30.2865L17.2786 30.2917Z" fill="white" stroke="white" stroke-width="0.75" stroke-miterlimit="10"/>
<path d="M22.1234 2.68486C21.7608 2.5245 21.4576 2.23568 21.0329 2.20901C21.4171 2.31425 21.7202 2.61629 22.1234 2.68486Z" fill="#FDFDFD"/>
<path d="M22.1228 2.68456C21.7169 2.62123 21.4219 2.3167 21.0323 2.20872C21.3814 2.39527 21.725 2.60552 22.1228 2.68456Z" fill="#FDFDFD"/>
<path d="M25.7098 4.62676C25.4443 4.29106 25.0278 4.20901 24.6841 4.01198C24.9739 4.30054 25.4038 4.36963 25.7098 4.62676Z" fill="#FDFDFD"/>
<path d="M25.7102 4.6265C25.3989 4.36661 24.977 4.29504 24.6846 4.01172C24.9878 4.28731 25.3477 4.45291 25.7102 4.6265Z" fill="#FDFDFD"/>
<path d="M27.0153 5.43317C26.9044 5.17714 26.6239 5.15853 26.4215 5.02769C26.5647 5.24732 26.856 5.24498 27.0153 5.43317Z" fill="#FDFDFD"/>
<path d="M27.0147 5.43282C26.8554 5.24463 26.5668 5.24173 26.4209 5.02734C26.5695 5.23649 26.7988 5.32818 27.0147 5.43282Z" fill="#FDFDFD"/>
<path d="M20.2866 1.86411C20.0679 1.77792 19.8899 1.57349 19.6198 1.61327C19.8629 1.6391 20.03 1.8777 20.2866 1.86411Z" fill="#FDFDFD"/>
<path d="M20.2862 1.86323C20.0296 1.87682 19.8598 1.64345 19.6194 1.61239C19.8272 1.73276 20.0324 1.85836 20.2862 1.86323Z" fill="#FDFDFD"/>
<path d="M27.9017 6.0158C27.82 5.79471 27.5876 5.77438 27.4198 5.66801C27.523 5.86042 27.7769 5.85207 27.9017 6.0158Z" fill="#FDFDFD"/>
<path d="M27.9018 6.01576C27.7771 5.85203 27.5231 5.86038 27.4199 5.66797C27.5312 5.85789 27.7232 5.93034 27.9018 6.01576Z" fill="#FDFDFD"/>
</g>
<defs>
<clipPath id="clip0_1288_58769">
<rect width="21" height="37" fill="white" transform="translate(16.9502) rotate(27.2659)"/>
</clipPath>
</defs>
</svg>
