<svg width="24" height="24" viewBox="0 0 24 24" fill="none" xmlns="http://www.w3.org/2400/svg">
<g clip-path="url(#clip0_698_57830)">
<path d="M23.0998 9.1307L13.2198 0.880703C12.5298 0.250703 11.4798 0.250703 10.7898 0.880703L0.899766 9.1307C0.649766 9.3607 0.509766 9.6807 0.509766 10.0247V22.3907C0.509766 23.0507 1.04977 23.5907 1.70977 23.5907H7.32977C7.98977 23.5907 8.52977 23.0507 8.52977 22.3907V17.1007C8.52977 16.6607 8.88977 16.3007 9.32977 16.3007H14.6598C15.0998 16.3007 15.4598 16.6607 15.4598 17.1007V22.3907C15.4598 23.0507 15.9998 23.5907 16.6598 23.5907H22.2798C22.9398 23.5907 23.4798 23.0507 23.4798 22.3907V10.0247C23.4798 9.6807 23.3398 9.3607 23.0898 9.1307H23.0998Z" />
</g>
<defs>
<clipPath id="clip0_698_57830">
<rect width="24" height="24" fill="white"/>
</clipPath>
</defs>
</svg>
