<svg width="46" height="55" viewBox="0 0 46 55" fill="none" xmlns="http://www.w3.org/2000/svg">
<g clip-path="url(#clip0_698_57869)">
<path d="M34.9147 6.3016C28.8912 2.82393 21.1761 4.89118 17.6984 10.9147C14.9419 15.6891 15.6684 21.494 19.0849 25.4432L9.35958 42.288L10.9331 47.8659L16.5504 46.4397L16.975 45.7042L15.5983 42.4813L19.0778 42.0621L19.3744 41.5485L17.9977 38.3256L21.4771 37.9064L21.7737 37.3927L20.397 34.1698L23.8765 33.7506L26.2893 29.5715C31.406 30.549 36.8148 28.2708 39.5646 23.508C43.0171 17.5011 40.9499 9.78602 34.9147 6.3016ZM29.0916 16.3875C27.399 15.4102 26.8217 13.2559 27.799 11.5632C28.7762 9.87058 30.9305 9.29333 32.6232 10.2706C34.3159 11.2478 34.8931 13.4022 33.9159 15.0948C32.9386 16.7875 30.7843 17.3647 29.0916 16.3875Z" fill="#F9E42E"/>
<path d="M33.9162 15.094C32.9389 16.7867 30.7846 17.3639 29.092 16.3867L10.915 47.87L16.5324 46.4438L16.957 45.7084L15.5803 42.4854L19.0598 42.0662L19.3563 41.5526L17.9796 38.3297L21.4591 37.9105L21.7556 37.3968L20.3789 34.1739L23.8584 33.7547L26.2712 29.5756C31.388 30.5531 36.7968 28.2749 39.5465 23.5121C43.0175 17.5003 40.9502 9.7852 34.915 6.30078L32.6235 10.2698C34.3162 11.247 34.8935 13.4014 33.9162 15.094Z" fill="#F3D523"/>
</g>
<defs>
<clipPath id="clip0_698_57869">
<rect width="25.2199" height="48" fill="white" transform="translate(24) rotate(30)"/>
</clipPath>
</defs>
</svg>
